<svg xmlns="http://www.w3.org/2000/svg" viewBox="0 0 1920 250.512"><defs><style>.cls-1{fill:#ffffff;}</style></defs><title>Asset 2xxxhdpi</title><g id="Layer_2" data-name="Layer 2"><g id="Layer_1-2" data-name="Layer 1"><g id="JCCKMu.tif"><path class="cls-1" d="M1920,149.512v101H0v-101c2.9-1.616,5.864-3.136,8.7-4.862A1101.726,1101.726,0,0,1,149.628,71.8C231.651,36.846,316.7,13.275,405.616,4.851,431.429,2.4,457.372.767,483.289.158,505.23-.358,527.268.43,549.173,1.94,577,3.858,604.917,5.931,632.484,10.027c38.567,5.731,77.052,12.423,115.208,20.436,70.429,14.791,139.467,35.072,208.61,54.9,74.416,21.346,148.769,42.98,223.589,62.83,82.094,21.781,165.31,38.41,249.98,46.678,28.783,2.811,57.635,5.309,86.516,6.609,25.262,1.136,50.63,1.075,75.914.3q44.117-1.356,88.154-5.013c22.987-1.884,46-4.44,68.721-8.344q50.285-8.64,100.126-19.8C1873.1,163.288,1896.45,155.956,1920,149.512Z"/></g></g></g></svg>