<svg xmlns="http://www.w3.org/2000/svg" viewBox="0 0 1577.718 327.684" fill="#1d1d1d"><defs/><g id="Layer_2" data-name="Layer 2"><g id="Layer_1-2" data-name="Layer 1"><path d="M277.621 192.97l40.96-117.117q7.284-20.325 7.283-30.341 0-9.4-6.524-12.288t-20.176-2.883V18.2h86.168v12.141a39.282 39.282 0 0 0-20.783 5.613q-9.26 5.619-14.108 18.964l-73.123 199.948h-27L197.52 94.664l-60.075 160.2h-25.183L47.938 77.673a234.978 234.978 0 0 0-10.619-24.88q-4.857-9.4-10.319-14.26a27.278 27.278 0 0 0-11.83-6.371A66.279 66.279 0 0 0 0 30.644V18.2h114.689v12.444q-15.474 0-21.238 2.883a9.9 9.9 0 0 0-5.766 9.558 35.24 35.24 0 0 0 .3 4.7 30.64 30.64 0 0 0 1.215 5.161q.909 2.886 2.275 7.13t3.795 10.619l42.478 122.275L186.9 58.862a85.564 85.564 0 0 0-6.069-13.35 25.879 25.879 0 0 0-16.383-12.591 95.987 95.987 0 0 0-12.441-2.277V18.2h107.1v12.444q-12.743 0-18.811 3.186t-6.069 12.288a49.215 49.215 0 0 0 1.366 10.62q1.365 6.073 3.792 13.957zM456.937 87.989a95.5 95.5 0 0 1 34.437 6.22 92.141 92.141 0 0 1 28.52 17.143 80.576 80.576 0 0 1 19.419 25.942 75.83 75.83 0 0 1 7.13 32.921 80.265 80.265 0 0 1-7.13 33.982 82.516 82.516 0 0 1-19.419 26.7 91.3 91.3 0 0 1-28.52 17.6 96.093 96.093 0 0 1-68.42.152 87.56 87.56 0 0 1-28.218-17.449 81.178 81.178 0 0 1-19.114-26.852 82.69 82.69 0 0 1-6.978-34.133 78.147 78.147 0 0 1 6.978-33.072 79.226 79.226 0 0 1 19.114-26.094 88.359 88.359 0 0 1 28.218-16.991 95.463 95.463 0 0 1 33.983-6.069zm0 17.6a31.054 31.054 0 0 0-16.688 4.7 40.314 40.314 0 0 0-12.9 13.2 68.76 68.76 0 0 0-8.192 20.48 113.4 113.4 0 0 0-2.883 26.549 118.207 118.207 0 0 0 2.883 27.307 68.593 68.593 0 0 0 8.192 20.633 40.816 40.816 0 0 0 12.744 13.2 30.794 30.794 0 0 0 16.839 4.7 32.347 32.347 0 0 0 17.142-4.7 40.643 40.643 0 0 0 13.2-13.35 70.906 70.906 0 0 0 8.5-20.783 111.575 111.575 0 0 0 3.035-27 106.517 106.517 0 0 0-3.035-26.4 71.265 71.265 0 0 0-8.5-20.48 40.662 40.662 0 0 0-13.2-13.35 32.383 32.383 0 0 0-17.137-4.707zM635.946 204.8a127.373 127.373 0 0 0 1.062 18.66q1.059 6.827 4.4 10.467t9.709 4.7a107.363 107.363 0 0 0 16.991 1.063v12.136h-101.34V239.7a100.483 100.483 0 0 0 14.563-1.821 13.4 13.4 0 0 0 8.192-4.854q2.733-3.641 3.489-10.468a175.156 175.156 0 0 0 .76-18.356v-37.022q0-18.809-.911-30.036t-3.944-17.3a15.259 15.259 0 0 0-8.647-8.039q-5.619-1.971-14.716-1.972V99.216l60.682-11.227 4.855 34.893h1.209A68.493 68.493 0 0 1 653.846 97.4q13.35-9.4 28.219-9.406 11.526 0 18.811 5.766a17.828 17.828 0 0 1 7.282 14.564 24.6 24.6 0 0 1-5.613 16.383q-5.619 6.678-15.322 6.675a18.064 18.064 0 0 1-8.194-1.82 37.622 37.622 0 0 1-6.522-4.1q-2.887-2.275-5.764-4.248a10.4 10.4 0 0 0-5.917-1.972q-5.769 0-10.924 7.586t-8.5 20.328a163.118 163.118 0 0 0-3.944 20.48 170.284 170.284 0 0 0-1.517 22.6zM817.382 239.7a83.207 83.207 0 0 0 13.654-.758c2.624-.5 3.944-1.565 3.944-3.186q0-1.821-4.1-8.952t-10.467-16.536l-23.057-34.588-15.173 14.563v11.833a160.513 160.513 0 0 0 .911 19.116q.909 7.281 3.186 11.378a11.873 11.873 0 0 0 6.369 5.613 30.5 30.5 0 0 0 10.47 1.517v12.136h-89.504V239.7a56.91 56.91 0 0 0 13.653-1.821 15.914 15.914 0 0 0 8.191-5.309q3.03-3.792 4.1-10.62a120.061 120.061 0 0 0 1.062-17.749V75.55q0-18.5-.607-29.129t-3.186-15.928a11.33 11.33 0 0 0-7.888-6.524 67.776 67.776 0 0 0-14.413-1.214V11.53L782.185 0v168.7l29.129-27.611q15.769-14.862 22.451-22.3t6.673-10.772q0-2.73-5.611-3.792t-20.784-1.061V91.023h82.832v12.138a49.283 49.283 0 0 0-20.328 3.944q-8.806 3.947-19.116 13.653L828 148.368l52.489 74.337q6.978 9.713 13.655 13.35t17.6 3.641v12.136h-94.362zM936.013 251.832h-9.408v-55.221h12.744q5.154 21.846 14.866 31.858t25.185 10.013q11.22 0 17.445-4.7a15.3 15.3 0 0 0 6.221-12.9q0-8.489-7.587-16.535T970.9 187.206q-23.061-12.438-33.071-24.729a42.794 42.794 0 0 1-10.015-27.762 45.835 45.835 0 0 1 3.8-18.66 47.222 47.222 0 0 1 10.313-15.019 45.248 45.248 0 0 1 15.627-9.861 54.7 54.7 0 0 1 19.721-3.489 65.672 65.672 0 0 1 18.661 2.731A56.064 56.064 0 0 1 1012.168 98l5.461-7.283h7.889v45.815h-11.833q-6.982-17.3-14.414-24.879a24.342 24.342 0 0 0-18.051-7.586q-8.5 0-13.5 4.552t-5 12.136q0 8.5 7.434 16.08t24.727 16.689a202.005 202.005 0 0 1 20.934 13.046 78.589 78.589 0 0 1 14.261 12.895 45.419 45.419 0 0 1 8.042 13.654 47.635 47.635 0 0 1-1.366 34.438 41.541 41.541 0 0 1-11.227 14.564 52.479 52.479 0 0 1-17.448 9.405 72.25 72.25 0 0 1-22.6 3.337 81.493 81.493 0 0 1-24.276-3.489 47.933 47.933 0 0 1-18.506-10.164zM1125.641 202.072a194.645 194.645 0 0 0 .76 19.57q.752 7.132 3.335 11.075a12.181 12.181 0 0 0 7.888 5.158 96.147 96.147 0 0 0 14.415 1.821v12.136h-95.575V239.7a100.485 100.485 0 0 0 14.562-1.821 13.392 13.392 0 0 0 8.193-4.854q2.728-3.641 3.489-10.468a175.433 175.433 0 0 0 .76-18.356V79.5q0-18.207-.455-28.674a98.865 98.865 0 0 0-1.668-15.928 26.2 26.2 0 0 0-2.126-6.221 8.827 8.827 0 0 0-3.793-3.64 19.376 19.376 0 0 0-6.978-1.821q-4.4-.454-11.077-.456V11.53L1125.035 0v111.959h1.212q9.4-12.438 21.088-18.2t28.065-5.766q29.731 0 46.12 18.2a67.526 67.526 0 0 1 12.439 22 80.125 80.125 0 0 1 4.551 26.852v47.029q0 12.745.609 19.874t3.185 10.923a12.281 12.281 0 0 0 7.737 5.006 91.884 91.884 0 0 0 14.259 1.823v12.136h-94.966V239.7a69.458 69.458 0 0 0 14.411-1.669 14.745 14.745 0 0 0 8.191-5.006q2.885-3.641 3.642-10.468a174.742 174.742 0 0 0 .757-18.356v-37.325q0-32.156-6.978-45.51t-23.967-13.352q-18.207 0-28.823 13.352a52.534 52.534 0 0 0-8.042 17.294 85.427 85.427 0 0 0-2.883 23.058zM1302.223 87.989l70.392 11.53v10.317q-13.956 0-19.267 2.427t-6.83 10.012A119.368 119.368 0 0 0 1345 137.9q-.609 11.377-.609 28.975V204.2a117.084 117.084 0 0 0 1.065 17.445q1.06 6.828 3.944 10.621a15.905 15.905 0 0 0 8.19 5.461 53.46 53.46 0 0 0 13.8 1.972v12.136h-95.575V239.7a65.4 65.4 0 0 0 13.959-1.669 13.354 13.354 0 0 0 7.889-5.31q2.727-3.939 3.64-11.226a163.988 163.988 0 0 0 .911-19.419zM1340 40.2a22.512 22.512 0 0 1-16.534 6.827 22.886 22.886 0 0 1-16.842-6.827 22.528 22.528 0 0 1-6.824-16.536 22.893 22.893 0 0 1 6.824-16.839A22.886 22.886 0 0 1 1323.461 0 22.512 22.512 0 0 1 1340 6.827a22.872 22.872 0 0 1 6.831 16.839A22.507 22.507 0 0 1 1340 40.2zM1443.914 110.745h1.216q20.025-22.755 52.187-22.756a82.254 82.254 0 0 1 32.312 6.22A76.035 76.035 0 0 1 1571.8 137.9a92.31 92.31 0 0 1 5.914 33.527 91.091 91.091 0 0 1-5.914 33.373 80.472 80.472 0 0 1-16.537 26.4 74.155 74.155 0 0 1-25.337 17.446 81.394 81.394 0 0 1-32.007 6.22q-29.435 0-44.9-20.025h-1.219v42.176a122.889 122.889 0 0 0 1.215 19.414q1.211 7.283 5.157 11.23t11.076 5.458a107.787 107.787 0 0 0 18.962 1.821v12.744h-104.676V314.94a55.761 55.761 0 0 0 13.353-1.821 14.778 14.778 0 0 0 8.039-5.458q2.88-3.951 3.945-10.775a120.284 120.284 0 0 0 1.061-17.746V166.27q0-13.953-.606-26.549a164 164 0 0 0-1.517-17.749q-1.522-6.977-6.827-9.709t-18.051-2.73V97.7l60.983-8.5zm51.582-5.461a42.052 42.052 0 0 0-18.51 4.249 36.876 36.876 0 0 0-13.956 11.225 50.555 50.555 0 0 0-7.889 17.446 89.317 89.317 0 0 0-2.732 22.6v20.636q0 21.548 10.621 36.713 11.529 16.691 32.466 16.688 18.5 0 27.456-15.322t8.953-47.485q0-66.744-36.405-66.75zM1439.905 40.2a22.51 22.51 0 0 1-16.534 6.827 22.886 22.886 0 0 1-16.842-6.827 22.528 22.528 0 0 1-6.824-16.536 22.893 22.893 0 0 1 6.824-16.839A22.886 22.886 0 0 1 1423.371 0a22.51 22.51 0 0 1 16.534 6.827 22.872 22.872 0 0 1 6.831 16.839 22.507 22.507 0 0 1-6.831 16.534z" class="cls-1"/></g></g></svg>